<?xml version="1.0"?>
<svg xmlns="http://www.w3.org/2000/svg" xmlns:xlink="http://www.w3.org/1999/xlink" xmlns:svgjs="http://svgjs.com/svgjs" version="1.1" width="512" height="512" x="0" y="0" viewBox="0 0 307.837 307.837" style="enable-background:new 0 0 512 512" xml:space="preserve"><g>
<g xmlns="http://www.w3.org/2000/svg">
	<path style="" d="M143.044,171.255c2.56,2.643,6.844,4.32,11.421,4.314c4.571,0.036,8.867-1.701,11.301-4.207   L278.677,57.688c7.554-7.602,4.988-13.766-5.734-13.766H36.792c-10.716,0-13.3,6.182-5.776,13.807L143.044,171.255z" fill="#333333" data-original="#010002"/>
	<path style="" d="M13.569,232.058l76.853-78.578L13.634,75.66C6.104,68.034,0,70.54,0,81.257v145.275   C0,237.243,6.074,239.719,13.569,232.058z" fill="#333333" data-original="#010002"/>
	<path style="" d="M36.702,263.915h234.426c10.717,0,13.336-6.217,5.848-13.879l-76.459-78.291l-17.053,17.197   c-7.996,8.002-18.629,11.57-29.011,11.588c-10.347-0.012-21.057-3.598-29.154-11.713l-17.334-17.572l-77.092,78.804   C23.378,257.703,25.986,263.915,36.702,263.915z" fill="#333333" data-original="#010002"/>
	<path style="" d="M307.837,226.508V83.16c0-10.716-6.122-13.24-13.676-5.639l-76.018,76.519l76.143,77.987   C301.768,239.695,307.837,237.225,307.837,226.508z" fill="#333333" data-original="#010002"/>
</g>
<g xmlns="http://www.w3.org/2000/svg">
</g>
<g xmlns="http://www.w3.org/2000/svg">
</g>
<g xmlns="http://www.w3.org/2000/svg">
</g>
<g xmlns="http://www.w3.org/2000/svg">
</g>
<g xmlns="http://www.w3.org/2000/svg">
</g>
<g xmlns="http://www.w3.org/2000/svg">
</g>
<g xmlns="http://www.w3.org/2000/svg">
</g>
<g xmlns="http://www.w3.org/2000/svg">
</g>
<g xmlns="http://www.w3.org/2000/svg">
</g>
<g xmlns="http://www.w3.org/2000/svg">
</g>
<g xmlns="http://www.w3.org/2000/svg">
</g>
<g xmlns="http://www.w3.org/2000/svg">
</g>
<g xmlns="http://www.w3.org/2000/svg">
</g>
<g xmlns="http://www.w3.org/2000/svg">
</g>
<g xmlns="http://www.w3.org/2000/svg">
</g>
</g></svg>
