<?xml version="1.0"?>
<svg xmlns="http://www.w3.org/2000/svg" xmlns:xlink="http://www.w3.org/1999/xlink" xmlns:svgjs="http://svgjs.com/svgjs" version="1.1" width="512" height="512" x="0" y="0" viewBox="0 0 512 512" style="enable-background:new 0 0 512 512" xml:space="preserve" class=""><g><path xmlns="http://www.w3.org/2000/svg" d="m301 256c0 24.851562-20.148438 45-45 45s-45-20.148438-45-45 20.148438-45 45-45 45 20.148438 45 45zm0 0" fill="#333333" data-original="#000000" style="" class=""/><path xmlns="http://www.w3.org/2000/svg" d="m332 120h-152c-33.085938 0-60 26.914062-60 60v152c0 33.085938 26.914062 60 60 60h152c33.085938 0 60-26.914062 60-60v-152c0-33.085938-26.914062-60-60-60zm-76 211c-41.355469 0-75-33.644531-75-75s33.644531-75 75-75 75 33.644531 75 75-33.644531 75-75 75zm86-146c-8.285156 0-15-6.714844-15-15s6.714844-15 15-15 15 6.714844 15 15-6.714844 15-15 15zm0 0" fill="#333333" data-original="#000000" style="" class=""/><path xmlns="http://www.w3.org/2000/svg" d="m377 0h-242c-74.4375 0-135 60.5625-135 135v242c0 74.4375 60.5625 135 135 135h242c74.4375 0 135-60.5625 135-135v-242c0-74.4375-60.5625-135-135-135zm45 332c0 49.625-40.375 90-90 90h-152c-49.625 0-90-40.375-90-90v-152c0-49.625 40.375-90 90-90h152c49.625 0 90 40.375 90 90zm0 0" fill="#333333" data-original="#000000" style="" class=""/></g></svg>
